HIERARCHY
ROOT Hips
{
	OFFSET -0.001795 -0.223333 0.028219
	CHANNELS 6 Xposition Yposition Zposition Zrotation Yrotation Xrotation 
	JOINT LeftUpLeg
	{
		OFFSET 0.069520 -0.091406 -0.006815
		CHANNELS 3 Zrotation Yrotation Xrotation
		JOINT LeftLeg
		{
			OFFSET 0.034277 -0.375199 -0.004496
			CHANNELS 3 Zrotation Yrotation Xrotation
			JOINT LeftFoot
			{
				OFFSET -0.013596 -0.397961 -0.043693
				CHANNELS 3 Zrotation Yrotation Xrotation
				JOINT LeftToe
				{
					OFFSET 0.026358 -0.055791 0.119288
					CHANNELS 3 Zrotation Yrotation Xrotation
					End Site
					{
						OFFSET 0.000000 0.000000 0.000000
					}
				}
			}
		}
	}
	JOINT RightUpLeg
	{
		OFFSET -0.067670 -0.090522 -0.004320
		CHANNELS 3 Zrotation Yrotation Xrotation
		JOINT RightLeg
		{
			OFFSET -0.038290 -0.382569 -0.008850
			CHANNELS 3 Zrotation Yrotation Xrotation
			JOINT RightFoot
			{
				OFFSET 0.015774 -0.398415 -0.042312
				CHANNELS 3 Zrotation Yrotation Xrotation
				JOINT RightToe
				{
					OFFSET -0.025372 -0.048144 0.123348
					CHANNELS 3 Zrotation Yrotation Xrotation
					End Site
					{
						OFFSET 0.000000 0.000000 0.000000
					}
				}
			}
		}
	}
	JOINT Spine
	{
		OFFSET -0.002533 0.108963 -0.026696
		CHANNELS 3 Zrotation Yrotation Xrotation
		JOINT Spine1
		{
			OFFSET 0.005487 0.135180 0.001092
			CHANNELS 3 Zrotation Yrotation Xrotation
			JOINT Spine2
			{
				OFFSET 0.001457 0.052922 0.025425
				CHANNELS 3 Zrotation Yrotation Xrotation
				JOINT Neck
				{
					OFFSET -0.002778 0.213870 -0.042857
					CHANNELS 3 Zrotation Yrotation Xrotation
					JOINT Head
					{
						OFFSET 0.005152 0.064970 0.051349
						CHANNELS 3 Zrotation Yrotation Xrotation
						End Site
						{
							OFFSET 0.000000 0.000000 0.000000
						}
					}
				}
				JOINT LeftShoulder
				{
					OFFSET 0.078845 0.121749 -0.034090
					CHANNELS 3 Zrotation Yrotation Xrotation
					JOINT LeftArm
					{
						OFFSET 0.090977 0.030469 -0.008868
						CHANNELS 3 Zrotation Yrotation Xrotation
						JOINT LeftForeArm
						{
							OFFSET 0.259612 -0.012772 -0.027456
							CHANNELS 3 Zrotation Yrotation Xrotation
							JOINT LeftHand
							{
								OFFSET 0.249234 0.008986 -0.001171
								CHANNELS 3 Zrotation Yrotation Xrotation
								End Site
								{
									OFFSET 0.000000 0.000000 0.000000
								}
							}
						}
					}
				}
				JOINT RightShoulder
				{
					OFFSET -0.081759 0.118833 -0.038615
					CHANNELS 3 Zrotation Yrotation Xrotation
					JOINT RightArm
					{
						OFFSET -0.096012 0.032551 -0.009143
						CHANNELS 3 Zrotation Yrotation Xrotation
						JOINT RightForeArm
						{
							OFFSET -0.253742 -0.013329 -0.021401
							CHANNELS 3 Zrotation Yrotation Xrotation
							JOINT RightHand
							{
								OFFSET -0.255298 0.007772 -0.005559
								CHANNELS 3 Zrotation Yrotation Xrotation
								End Site
								{
									OFFSET 0.000000 0.000000 0.000000
								}
							}
						}
					}
				}
			}
		}
	}
}
MOTION
Frames: 8
Frame Time: 0.05000000
0.000000 0.834358 0.000000 3.392164 -13.878207 21.501976 6.181714 0.070127 -66.566928 -13.760380 11.316558 60.100732 7.626011 16.761425 -11.862359 0.000000 0.000000 0.000000 -4.264482 1.738181 -16.912887 7.438368 -0.561712 15.649387 -9.419036 -8.135911 -45.174416 0.000000 0.000000 0.000000 0.038385 0.934224 -22.152398 -3.023875 1.208193 -19.684297 5.420085 17.432192 40.912919 7.646816 0.435118 -34.491073 0.000000 0.000000 0.000000 21.082054 4.145225 2.261837 -81.594380 -5.752421 -12.976273 -28.561401 -30.999734 9.736831 0.000000 0.000000 0.000000 -19.357748 -9.862925 -3.570270 92.501967 5.948998 6.425356 13.308769 41.674459 7.829323 0.000000 0.000000 0.000000 
-0.176000 0.829304 1.038620 4.034944 -16.341513 21.458848 7.352086 1.442660 -68.679445 -13.806148 8.274098 44.539815 7.613987 17.790542 -8.107602 0.000000 0.000000 0.000000 -6.477503 1.677092 -10.732867 6.502940 -0.354824 10.191132 -9.685752 -6.662569 -44.973213 0.000000 0.000000 0.000000 -0.880310 0.958474 -22.952646 -3.279180 1.264859 -19.742506 6.854927 20.309029 41.894091 7.852462 0.677772 -34.596140 0.000000 0.000000 0.000000 20.586725 4.661728 2.479814 -79.994857 -3.852534 -15.323545 -29.317961 -29.373639 9.236599 0.000000 0.000000 0.000000 -18.991448 -10.049980 -4.045772 92.573807 8.617214 10.604809 10.799906 44.348508 7.507960 0.000000 0.000000 0.000000 
-0.339264 0.813531 2.178970 3.546021 -16.830437 19.355684 9.665497 2.569522 -64.919480 -15.393885 6.042394 27.994702 7.875882 19.678679 -13.854292 0.000000 0.000000 0.000000 -6.780742 1.522005 -2.882226 5.063559 -0.201101 5.663452 -10.001400 -4.447432 -46.145022 0.000000 0.000000 0.000000 -0.492390 0.874682 -20.959693 -2.971502 1.176060 -19.706214 6.556425 20.447921 40.950208 6.541416 1.332534 -35.767982 0.000000 0.000000 0.000000 20.702923 5.776735 2.276135 -79.735854 -0.481238 -17.606400 -28.891770 -27.824197 8.525354 0.000000 0.000000 0.000000 -19.381054 -9.686233 -3.875553 92.781567 13.192555 14.856750 6.618656 47.189497 6.296342 0.000000 0.000000 0.000000 
-0.467581 0.797327 3.440796 2.929359 -18.796831 16.876954 11.440569 3.949738 -63.287881 -13.609148 4.569471 22.513567 7.607388 18.517998 -12.643979 0.000000 0.000000 0.000000 -9.025122 2.021995 5.965423 6.937380 -0.294588 2.055975 -9.924456 -2.016614 -45.494004 0.000000 0.000000 0.000000 -0.201892 0.724154 -17.790825 -3.330142 1.264881 -20.402590 7.559817 23.467662 40.764705 6.963923 1.496650 -36.522942 0.000000 0.000000 0.000000 21.274365 5.637189 2.758433 -78.885411 0.728263 -19.559773 -27.727858 -24.997961 7.146782 0.000000 0.000000 0.000000 -19.551069 -9.414555 -4.208650 93.216307 15.752097 18.995763 -1.286515 47.424897 2.948846 0.000000 0.000000 0.000000 
-0.582331 0.783227 4.857262 2.713643 -20.009967 17.083502 12.900886 5.307397 -64.509175 -15.430003 5.755199 24.888085 8.019633 19.304619 -10.351921 0.000000 0.000000 0.000000 -10.874751 2.733795 8.774467 7.568693 -0.424611 4.639543 -9.822483 -0.636645 -45.522376 0.000000 0.000000 0.000000 -1.104757 0.735270 -18.243477 -3.394016 1.272174 -20.149272 7.870930 24.159329 40.894020 7.188762 1.378753 -35.439917 0.000000 0.000000 0.000000 22.030494 5.863517 2.929666 -77.966133 1.562062 -20.076507 -25.835267 -23.354397 6.203421 0.000000 0.000000 0.000000 -20.002666 -9.101170 -4.206138 93.532264 17.457572 21.196538 -3.991737 47.223403 1.727601 0.000000 0.000000 0.000000 
-0.693246 0.777087 6.456049 3.003933 -22.483918 18.658654 12.176284 5.924781 -67.504668 -16.155516 8.056780 33.694959 7.138309 16.265191 -4.134228 0.000000 0.000000 0.000000 -13.583002 3.962098 10.024887 8.197120 -0.577580 7.190872 -8.471157 2.043163 -39.835649 0.000000 0.000000 0.000000 -2.176084 0.843046 -20.913733 -3.916027 1.395965 -19.881235 8.309343 25.454204 41.543253 7.153621 1.370556 -34.099123 0.000000 0.000000 0.000000 21.899850 6.500569 2.892723 -78.012444 0.939834 -19.768006 -21.849026 -21.211930 4.860855 0.000000 0.000000 0.000000 -19.911202 -9.871413 -4.459542 93.708068 16.572639 20.886746 -4.765025 48.027888 1.526746 0.000000 0.000000 0.000000 
-0.786572 0.782645 8.180661 3.325358 -22.343893 21.473155 10.328106 5.424781 -72.259833 -15.812972 10.007666 43.299514 5.970249 13.636385 0.451704 0.000000 0.000000 0.000000 -15.636300 4.662515 8.214314 9.346513 -1.010436 13.125327 -6.351465 2.184294 -31.624777 0.000000 0.000000 0.000000 -3.478537 0.979545 -24.805487 -4.341553 1.519946 -19.580771 8.623158 25.298760 42.052743 7.048576 1.549867 -35.120945 0.000000 0.000000 0.000000 21.310814 5.979730 3.000459 -77.268933 -0.397028 -18.619134 -19.928092 -19.904482 4.234910 0.000000 0.000000 0.000000 -20.479276 -9.906475 -4.578642 95.220689 13.804679 19.454647 -4.820194 46.912046 1.342552 0.000000 0.000000 0.000000 
-0.840699 0.794466 9.884943 3.851881 -20.758048 22.269888 6.980114 2.651239 -72.157010 -13.989809 10.396954 51.180501 5.766530 12.499509 -6.208099 0.000000 0.000000 0.000000 -17.232578 4.326669 1.256599 12.011490 -2.602794 30.740787 -4.505627 -0.969915 -20.483024 0.000000 0.000000 0.000000 -4.751759 0.967488 -26.026364 -4.255623 1.510145 -18.715780 7.262710 23.423209 41.399916 7.117073 1.378746 -35.298222 0.000000 0.000000 0.000000 21.506816 4.719070 3.103439 -78.464981 -2.539977 -16.948595 -17.713519 -20.509617 4.038494 0.000000 0.000000 0.000000 -20.489648 -9.806458 -4.345315 95.194760 10.164800 15.061814 2.268273 44.510605 3.870722 0.000000 0.000000 0.000000 
